HIERARCHY
ROOT Hips
{
	OFFSET -1.602300 6.242603 43.997101
	CHANNELS 6 Xposition Yposition Zposition Zrotation Xrotation Yrotation
	JOINT Chest
	{
		OFFSET -0.204900 1.598101 7.917301
		CHANNELS 6 Xposition Yposition Zposition Zrotation Xrotation Yrotation
		JOINT Chest2
		{
			OFFSET 0.000000 0.000000 3.404099
			CHANNELS 6 Xposition Yposition Zposition Zrotation Xrotation Yrotation
			JOINT Neck
			{
				OFFSET 0.000000 0.000000 7.928600
				CHANNELS 6 Xposition Yposition Zposition Zrotation Xrotation Yrotation
				JOINT Head
				{
					OFFSET 0.000000 0.000000 2.173897
					CHANNELS 6 Xposition Yposition Zposition Zrotation Xrotation Yrotation
					End Site
					{
						OFFSET 0.000000 0.000001 10.404503
					}
				}
			}
			JOINT LeftCollar
			{
				OFFSET 2.833800 -1.396299 4.843300
				CHANNELS 6 Xposition Yposition Zposition Zrotation Xrotation Yrotation
				JOINT LeftShoulder
				{
					OFFSET 4.363600 0.000000 0.000000
					CHANNELS 6 Xposition Yposition Zposition Zrotation Xrotation Yrotation
					JOINT LeftElbow
					{
						OFFSET 0.000000 -0.000001 -10.306900
						CHANNELS 6 Xposition Yposition Zposition Zrotation Xrotation Yrotation
						JOINT LeftWrist
						{
							OFFSET 0.000000 -0.000001 -12.404900
							CHANNELS 6 Xposition Yposition Zposition Zrotation Xrotation Yrotation
							End Site
							{
								OFFSET 0.000000 0.000000 -2.173901
							}
						}
					}
				}
			}
			JOINT RightCollar
			{
				OFFSET -2.354800 -1.897200 5.063099
				CHANNELS 6 Xposition Yposition Zposition Zrotation Xrotation Yrotation
				JOINT RightShoulder
				{
					OFFSET -4.375800 0.000000 0.000000
					CHANNELS 6 Xposition Yposition Zposition Zrotation Xrotation Yrotation
					JOINT RightElbow
					{
						OFFSET 0.000000 -0.000001 -10.005001
						CHANNELS 6 Xposition Yposition Zposition Zrotation Xrotation Yrotation
						JOINT RightWrist
						{
							OFFSET 0.000000 -0.000001 -13.174900
							CHANNELS 6 Xposition Yposition Zposition Zrotation Xrotation Yrotation
							End Site
							{
								OFFSET 0.000000 0.000000 -2.173901
							}
						}
					}
				}
			}
		}
	}
	JOINT LeftHip
	{
		OFFSET 2.240600 0.386800 -2.614101
		CHANNELS 6 Xposition Yposition Zposition Zrotation Xrotation Yrotation
		JOINT LeftKnee
		{
			OFFSET 0.000000 -0.000001 -18.592899
			CHANNELS 6 Xposition Yposition Zposition Zrotation Xrotation Yrotation
			JOINT LeftAnkle
			{
				OFFSET 0.000000 -0.000001 -18.765800
				CHANNELS 6 Xposition Yposition Zposition Zrotation Xrotation Yrotation
				End Site
				{
					OFFSET 0.000000 -8.655000 0.000000
				}
			}
		}
	}
	JOINT RightHip
	{
		OFFSET -2.014900 -0.220900 -2.615898
		CHANNELS 6 Xposition Yposition Zposition Zrotation Xrotation Yrotation
		JOINT RightKnee
		{
			OFFSET 0.000000 -0.000001 -18.633900
			CHANNELS 6 Xposition Yposition Zposition Zrotation Xrotation Yrotation
			JOINT RightAnkle
			{
				OFFSET 0.000000 -0.000001 -18.285101
				CHANNELS 6 Xposition Yposition Zposition Zrotation Xrotation Yrotation
				End Site
				{
					OFFSET 0.000000 -7.524500 0.000000
				}
			}
		}
	}
}
MOTION
Frames: 8
Frame Time: 0.041667
-5.452999 25.503008 9.133408 4.362833 3.918064 5.750338 -0.204900 1.598101 7.917310 -4.874839 -3.774142 -5.079468 0.000000 0.000004 3.404104 1.979051 -16.495011 -1.682604 0.000000 -0.000003 7.928600 -3.875789 19.727929 0.213076 0.000000 0.000002 2.173895 2.020970 -5.051899 1.905502 2.833799 -1.396300 4.843306 48.366403 -12.997579 2.364038 4.363603 0.000008 -0.000004 -116.354417 -2.955366 -134.244732 0.000000 0.000003 -10.306894 234.963453 -166.036885 190.804668 0.000002 0.000006 -12.404895 -524.102927 189.813498 -154.443186 -2.354803 -1.897201 5.063105 11.504040 12.949464 -14.970658 -4.375800 0.000008 -0.000017 69.893797 1.089845 163.158767 0.000003 0.000003 -10.004998 -240.257368 -171.108888 -194.320193 -0.000002 0.000005 -13.174899 -188.879579 -159.268988 169.560334 2.240600 0.386802 -2.614101 139.717817 -38.990637 108.290566 0.000000 -0.000003 -18.592890 -107.877005 35.666397 131.439354 -0.000003 -0.000001 -18.765797 6.146298 31.547937 10.917728 -2.014896 -0.220896 -2.615903 -118.932650 -6.312689 -95.199744 -0.000000 0.000003 -18.633881 186.314761 25.749246 -176.861123 -0.000006 -0.000005 -18.285084 -9.455426 34.816258 -212.719084
-5.439199 25.498003 9.134312 4.351239 3.929903 5.775298 -0.204899 1.598098 7.917310 -4.860278 -3.734338 -5.121696 0.000000 0.000005 3.404100 2.345972 -16.490495 -1.639165 -0.000000 -0.000001 7.928600 -4.094856 19.579104 0.420416 0.000000 0.000002 2.173903 2.080206 -5.055755 2.033091 2.833800 -1.396298 4.843304 48.546898 -13.105601 2.278994 4.363603 0.000008 -0.000014 -115.468023 -2.751027 -134.482641 0.000001 0.000001 -10.306899 235.369466 -166.120173 190.717596 0.000005 0.000001 -12.404896 -523.835566 189.857662 -153.863221 -2.354802 -1.897202 5.063101 11.380887 12.792459 -15.293415 -4.375799 0.000006 -0.000007 70.425541 1.569575 163.043815 0.000001 0.000005 -10.004998 -240.748705 -171.160456 -194.495634 -0.000004 0.000004 -13.174899 -188.329503 -159.383912 169.984325 2.240599 0.386802 -2.614098 139.699840 -39.210299 108.260780 -0.000000 -0.000001 -18.592892 -107.599153 35.702772 131.388224 -0.000001 -0.000001 -18.765799 6.189073 31.580005 10.657964 -2.014897 -0.220900 -2.615897 -118.981376 -6.049992 -95.159739 -0.000001 0.000004 -18.633883 186.407269 25.650893 -176.778642 -0.000005 -0.000005 -18.285086 -9.549919 34.774617 -212.640946
-5.426600 25.495602 9.132809 4.341413 3.953264 5.778978 -0.204900 1.598103 7.917311 -4.846802 -3.723595 -5.161101 -0.000001 0.000003 3.404102 2.717744 -16.458480 -1.592715 -0.000000 -0.000001 7.928600 -4.311874 19.426296 0.651006 0.000000 -0.000000 2.173898 2.101370 -5.065102 2.124785 2.833799 -1.396297 4.843300 48.541004 -13.154056 2.012922 4.363600 0.000005 -0.000010 -114.503579 -2.810058 -134.815558 -0.000003 0.000002 -10.306897 235.568389 -166.168435 190.656111 0.000007 -0.000002 -12.404896 -523.598422 189.908082 -153.361010 -2.354802 -1.897202 5.063101 11.344050 12.660526 -15.458059 -4.375801 0.000000 -0.000012 71.002152 1.852816 162.878196 0.000001 0.000004 -10.004986 -241.146386 -171.185318 -194.697684 -0.000000 0.000001 -13.174895 -188.008470 -159.435016 170.288856 2.240598 0.386801 -2.614102 139.676139 -39.386822 108.240508 0.000001 0.000001 -18.592894 -107.368702 35.770599 131.349756 -0.000000 -0.000000 -18.765799 6.207001 31.622458 10.406072 -2.014894 -0.220894 -2.615900 -119.029734 -5.813494 -95.161938 0.000000 0.000002 -18.633884 186.504585 25.564413 -176.709138 -0.000005 -0.000005 -18.285084 -9.624398 34.735880 -212.566702
-5.414699 25.494104 9.131310 4.346866 3.965685 5.773317 -0.204900 1.598099 7.917310 -4.844861 -3.691601 -5.199674 0.000000 0.000007 3.404095 3.101683 -16.429340 -1.544207 0.000000 0.000005 7.928598 -4.534056 19.267235 0.899260 0.000000 -0.000001 2.173906 2.069165 -5.081132 2.209524 2.833799 -1.396295 4.843305 48.466384 -13.144539 1.742011 4.363605 0.000015 -0.000013 -113.566450 -2.977024 -135.182653 -0.000005 0.000003 -10.306902 235.594152 -166.205304 190.613491 0.000006 0.000001 -12.404900 -523.406412 189.963830 -152.871040 -2.354800 -1.897199 5.063103 11.362021 12.510968 -15.607682 -4.375799 0.000006 -0.000015 71.601228 2.059613 162.682634 -0.000000 0.000003 -10.004997 -241.593681 -171.208445 -195.008758 -0.000002 0.000003 -13.174899 -187.591719 -159.427216 170.573866 2.240601 0.386800 -2.614102 139.625719 -39.575550 108.206685 0.000000 -0.000000 -18.592894 -107.162861 35.878256 131.330181 -0.000000 -0.000000 -18.765799 6.201586 31.681074 10.098351 -2.014897 -0.220900 -2.615900 -119.085919 -5.619165 -95.174882 -0.000001 0.000002 -18.633884 186.600823 25.491139 -176.652229 -0.000005 -0.000007 -18.285088 -9.670650 34.702470 -212.505463
-5.403499 25.493605 9.129509 4.362848 3.971015 5.758783 -0.204900 1.598105 7.917311 -4.850970 -3.639634 -5.231148 -0.000000 0.000006 3.404101 3.502584 -16.573656 -1.507186 -0.000001 0.000001 7.928602 -4.841656 19.262445 1.246241 0.000000 0.000001 2.173900 2.063889 -5.090830 2.227902 2.833799 -1.396298 4.843305 48.299379 -12.962815 1.295031 4.363604 0.000014 -0.000018 -112.643268 -3.235131 -135.605647 0.000000 0.000004 -10.306888 235.579863 -166.263279 190.582755 0.000005 0.000000 -12.404894 -523.388271 190.050382 -152.405809 -2.354802 -1.897202 5.063100 11.383846 12.501551 -15.796110 -4.375801 0.000005 -0.000013 72.313050 2.253952 162.454287 -0.000001 0.000004 -10.004995 -242.010268 -171.240875 -195.389173 -0.000002 0.000001 -13.174896 -187.030114 -159.359884 170.887344 2.240600 0.386804 -2.614103 139.557608 -39.783560 108.167397 -0.000000 -0.000002 -18.592896 -106.973330 36.025918 131.329566 -0.000001 -0.000002 -18.765799 6.167823 31.749738 9.753284 -2.014895 -0.220890 -2.615899 -119.146995 -5.459266 -95.201437 -0.000001 0.000004 -18.633886 186.695762 25.433692 -176.606808 -0.000006 -0.000005 -18.285088 -9.695151 34.678298 -212.452993
-5.394599 25.495300 9.126610 4.395456 3.964254 5.737829 -0.204901 1.598098 7.917309 -4.863990 -3.484372 -5.268057 -0.000000 0.000002 3.404097 3.921073 -16.651305 -1.447288 -0.000001 -0.000002 7.928599 -5.098186 19.118869 1.522565 0.000000 0.000003 2.173907 1.978982 -5.104752 2.235643 2.833799 -1.396300 4.843302 47.988004 -12.803552 0.861922 4.363604 0.000006 -0.000013 -111.390543 -3.411566 -136.024146 -0.000000 -0.000001 -10.306903 235.671607 -166.192026 190.497855 0.000004 0.000002 -12.404895 -523.341498 190.144311 -151.929922 -2.354804 -1.897205 5.063101 11.480240 14.922847 -16.079327 -4.375800 0.000002 -0.000013 73.607835 1.815336 164.625700 0.000005 0.000004 -10.004992 -242.483737 -171.237856 -195.948292 -0.000003 -0.000001 -13.174888 -186.273465 -159.538288 172.224641 2.240600 0.386800 -2.614101 139.468051 -39.956685 108.117510 -0.000001 0.000001 -18.592892 -106.859150 36.195942 131.358130 -0.000002 -0.000001 -18.765799 6.103128 31.825003 9.409646 -2.014896 -0.220902 -2.615900 -119.208781 -5.368153 -95.232310 -0.000002 0.000003 -18.633884 186.773722 25.392142 -176.585375 -0.000007 -0.000005 -18.285086 -9.691183 34.657848 -212.423938
-5.386700 25.498001 9.123409 4.434765 3.953718 5.707175 -0.204900 1.598101 7.917307 -4.892616 -3.473133 -5.304242 -0.000000 0.000007 3.404100 4.338073 -16.560110 -1.394506 0.000000 -0.000001 7.928605 -5.353521 18.967430 1.808747 -0.000000 0.000003 2.173900 1.889315 -5.131320 2.212106 2.833798 -1.396299 4.843310 47.526881 -12.629733 0.248938 4.363603 0.000009 -0.000005 -109.880525 -3.656564 -136.463628 -0.000000 0.000002 -10.306890 235.765371 -166.082238 190.348766 0.000007 0.000003 -12.404892 -523.157574 190.274385 -151.443517 -2.354803 -1.897198 5.063104 11.549866 14.817016 -16.130306 -4.375800 0.000003 -0.000016 74.296428 1.902462 164.409948 0.000004 0.000005 -10.004987 -242.961303 -171.212844 -196.469244 0.000000 0.000001 -13.174895 -185.473322 -159.503372 172.541247 2.240599 0.386803 -2.614104 139.365529 -40.086636 108.046967 -0.000001 -0.000000 -18.592892 -106.788075 36.349594 131.396748 -0.000003 -0.000000 -18.765802 6.041158 31.892230 9.064391 -2.014895 -0.220894 -2.615901 -119.280484 -5.261227 -95.270306 -0.000000 0.000003 -18.633883 186.861313 25.348371 -176.557344 -0.000006 -0.000005 -18.285086 -9.694118 34.634892 -212.380416
-5.380199 25.501604 9.120213 4.484300 3.939852 5.668985 -0.204900 1.598101 7.917305 -4.930939 -3.458097 -5.328964 0.000000 0.000003 3.404101 4.753759 -16.473064 -1.342727 0.000000 0.000005 7.928598 -5.606691 18.813112 2.089894 0.000000 -0.000002 2.173894 1.822243 -5.132402 2.191816 2.833798 -1.396295 4.843303 47.346076 -12.453406 -0.157522 4.363603 0.000008 -0.000010 -108.525026 -3.711094 -136.800643 -0.000001 0.000001 -10.306895 235.887659 -165.953803 190.157111 0.000005 0.000003 -12.404893 -522.803771 190.415238 -150.913112 -2.354803 -1.897196 5.063102 11.601142 14.689343 -16.485705 -4.375800 0.000009 -0.000011 74.833847 2.293606 164.230054 0.000001 0.000005 -10.005001 -243.609898 -171.150525 -197.096132 -0.000001 0.000000 -13.174895 -184.597938 -159.451709 173.000700 2.240599 0.386801 -2.614105 139.247435 -40.193310 107.960203 0.000001 -0.000001 -18.592890 -106.749587 36.491785 131.447400 -0.000000 0.000001 -18.765800 5.981744 31.945208 8.698245 -2.014895 -0.220896 -2.615901 -119.366175 -5.130385 -95.306848 -0.000002 0.000004 -18.633883 186.954217 25.299984 -176.517688 -0.000006 -0.000007 -18.285086 -9.714401 34.608756 -212.317605
